# xmcd
#
# Track frame offsets: 
#        150
#        12157
#        26947
#        37888
#        48895
#        60778
#        71524
#        85707
#        97293
#        110865
#        122653
#        135919
#
# Disc length: 1971 seconds
#
# Revision: 0
# Processed by: cddbd v1.5.2PL0 Copyright (c) Steve Scherf et al.
# Submitted via: ExactAudioCopy v0.99pb4
#
DISCID=9607b10c
DTITLE=Charles Wright and The Watts 103rd Street Rhythm Band - The Watts
DTITLE=103rd. St. Rhythm Band
DYEAR=1968
DGENRE=R&B
TTITLE0=Caesar's Palace
TTITLE1=Yellow Submarine
TTITLE2=Brown Sugar
TTITLE3=Soul Concerto
TTITLE4=Fried Okra
TTITLE5=Spreadin' Honey
TTITLE6=A Little Class and A Little Trash
TTITLE7=The 103rd St. Theme
TTITLE8=The Girl From Ipanema
TTITLE9=Bring It On Home To Me
TTITLE10=Whole Hog, Or None At All
TTITLE11=Watts Happening
EXTD=
EXTT0=
EXTT1=
EXTT2=
EXTT3=
EXTT4=
EXTT5=
EXTT6=
EXTT7=
EXTT8=
EXTT9=
EXTT10=
EXTT11=
PLAYORDER=
